<?xml version="1.0" encoding="iso-8859-1"?>
<!-- Generator: Adobe Illustrator 25.4.1, SVG Export Plug-In . SVG Version: 6.00 Build 0)  -->
<svg version="1.1" id="&#x5716;&#x5C64;_1" xmlns="http://www.w3.org/2000/svg" xmlns:xlink="http://www.w3.org/1999/xlink" x="0px"
	 y="0px" viewBox="0 0 291 146" style="enable-background:new 0 0 291 146;" xml:space="preserve">
<linearGradient id="SVGID_1_" gradientUnits="userSpaceOnUse" x1="57.3832" y1="55.8367" x2="82.3869" y2="79.1355">
	<stop  offset="0" style="stop-color:#368696"/>
	<stop  offset="1" style="stop-color:#029352"/>
</linearGradient>
<path style="fill:url(#SVGID_1_);" d="M99.456,66.84c-2.699,0-5.405,0.378-7.995,1.141c-2.45,0.721-4.681,2.129-7.215,2.595
	c-1.771,0.326-4.037,0.424-5.784-0.035c-0.936-0.246-2.059-0.856-2.661-1.642c-3.5-4.571,0.633-10.529,1.547-15.232
	c0.347-1.78,0.513-3.624,0.513-5.438c0-15.692-12.721-28.414-28.413-28.414c-15.692,0-28.413,12.721-28.413,28.414
	c0,15.691,12.721,28.413,28.413,28.413c2.822,0,5.545-0.418,8.112-1.178c0,0,0.032-0.011,0.083-0.027
	c0.133-0.04,0.268-0.079,0.4-0.122c3.522-1.119,9.069-2.036,11.72,1.327c4.277,5.428,1.278,12.461,1.278,18.611
	c0,15.691,12.722,28.413,28.414,28.413s28.413-12.721,28.413-28.413C127.869,79.562,115.147,66.84,99.456,66.84z"/>
<path style="fill:#FFFFFF;" d="M49.377,64.07c-8.696,0-15.77-7.074-15.77-15.77s7.074-15.769,15.77-15.769
	c8.695,0,15.769,7.074,15.769,15.769S58.073,64.07,49.377,64.07L49.377,64.07z M49.377,38.072c-5.64,0-10.229,4.588-10.229,10.228
	c0,5.64,4.589,10.229,10.229,10.229c5.64,0,10.229-4.589,10.229-10.229C59.606,42.661,55.017,38.072,49.377,38.072L49.377,38.072z"
	/>
<linearGradient id="SVGID_00000151521292633966323540000002944365381148753310_" gradientUnits="userSpaceOnUse" x1="27.1215" y1="79.3598" x2="52.125" y2="102.6585">
	<stop  offset="0" style="stop-color:#368696"/>
	<stop  offset="1" style="stop-color:#029352"/>
</linearGradient>
<path style="fill:url(#SVGID_00000151521292633966323540000002944365381148753310_);" d="M60.671,111.591H32.259V83.178h28.413
	V111.591L60.671,111.591z M37.799,106.051h17.332V88.718H37.799V106.051L37.799,106.051z"/>
<polygon style="fill:#FFFFFF;" points="112.392,83.099 108.473,79.181 97.86,89.795 87.486,79.421 83.567,83.339 93.941,93.713 
	83.328,104.327 87.246,108.245 97.86,97.631 108.233,108.005 112.152,104.087 101.778,93.713 "/>
<linearGradient id="SVGID_00000021803248389640110020000011157549769546488504_" gradientUnits="userSpaceOnUse" x1="79.5247" y1="33.6885" x2="104.5282" y2="56.9872">
	<stop  offset="0" style="stop-color:#368696"/>
	<stop  offset="1" style="stop-color:#029352"/>
</linearGradient>
<path style="fill:url(#SVGID_00000021803248389640110020000011157549769546488504_);" d="M117.31,60.803H83.328l16.991-31.309
	L117.31,60.803L117.31,60.803z M92.638,55.262h15.361l-7.681-14.152L92.638,55.262L92.638,55.262z"/>
<g>
	<path style="fill:#00567F;" d="M142.038,37.239h10.965l10.781,33.141h0.123l10.965-33.141h10.288l-17.988,50.568h-7.7
		L142.038,37.239z"/>
	<path style="fill:#00567F;" d="M227.974,84.236c-2.833,1.714-5.79,2.953-8.871,3.714c-3.08,0.761-6.222,1.143-9.425,1.143
		c-3.409,0-6.551-0.62-9.425-1.857c-2.875-1.238-5.359-3.011-7.454-5.321c-2.094-2.309-3.727-5.107-4.897-8.392
		c-1.17-3.286-1.755-6.952-1.755-11c0-4.046,0.585-7.714,1.755-10.999c1.17-3.286,2.803-6.083,4.897-8.393
		c2.095-2.309,4.579-4.082,7.454-5.321c2.874-1.238,6.016-1.857,9.425-1.857c3.49,0,6.704,0.489,9.641,1.464
		c2.936,0.977,5.513,2.655,7.731,5.036l-6.776,8.571c-1.315-1.571-2.793-2.761-4.436-3.571c-1.643-0.809-3.696-1.214-6.16-1.214
		c-2.054,0-3.912,0.405-5.575,1.214c-1.663,0.81-3.091,1.941-4.281,3.393c-1.192,1.453-2.105,3.178-2.741,5.178
		c-0.637,2-0.955,4.167-0.955,6.5c0,2.382,0.318,4.56,0.955,6.535c0.636,1.976,1.549,3.691,2.741,5.142
		c1.19,1.453,2.618,2.584,4.281,3.393c1.664,0.811,3.521,1.214,5.575,1.214c2.095,0,3.901-0.273,5.421-0.821
		c1.519-0.547,2.731-1.107,3.635-1.678v-8.214h-7.824V57.809h17.064V84.236z"/>
	<path style="fill:#00567F;" d="M243.621,47.096h-12.444v-9.857h34.498v9.857h-12.444v40.711h-9.61V47.096z"/>
</g>
<g>
	<path style="fill:#029352;" d="M155.988,104.306c0,0.081-0.004,0.151-0.011,0.212c-0.007,0.061-0.018,0.111-0.033,0.151
		c-0.015,0.041-0.033,0.069-0.055,0.085c-0.021,0.018-0.045,0.025-0.071,0.025c-0.043,0-0.117-0.04-0.219-0.12
		c-0.102-0.08-0.238-0.169-0.41-0.266c-0.171-0.097-0.376-0.186-0.614-0.267c-0.238-0.08-0.522-0.12-0.85-0.12
		c-0.39,0-0.739,0.082-1.049,0.246c-0.309,0.165-0.572,0.393-0.786,0.684c-0.215,0.291-0.38,0.637-0.495,1.039
		c-0.115,0.401-0.172,0.835-0.172,1.304c0,0.524,0.063,0.988,0.189,1.393c0.126,0.406,0.299,0.748,0.521,1.026
		c0.222,0.279,0.487,0.49,0.795,0.633c0.308,0.144,0.645,0.215,1.013,0.215c0.218,0,0.44-0.031,0.663-0.092
		c0.224-0.062,0.433-0.153,0.626-0.276v-2.387h-1.639c-0.062,0-0.108-0.036-0.14-0.108c-0.03-0.071-0.046-0.184-0.046-0.336
		c0-0.08,0.003-0.149,0.011-0.206c0.007-0.057,0.019-0.103,0.035-0.139c0.017-0.036,0.036-0.062,0.058-0.08
		c0.022-0.016,0.049-0.025,0.082-0.025h2.245c0.04,0,0.08,0.009,0.12,0.025c0.04,0.017,0.077,0.042,0.109,0.076
		c0.032,0.034,0.058,0.08,0.077,0.139c0.018,0.06,0.027,0.127,0.027,0.203v3.122c0,0.11-0.016,0.206-0.049,0.285
		c-0.033,0.08-0.102,0.151-0.207,0.212c-0.106,0.061-0.242,0.128-0.41,0.2c-0.167,0.071-0.34,0.133-0.519,0.184
		c-0.178,0.05-0.358,0.089-0.54,0.114c-0.182,0.025-0.363,0.038-0.542,0.038c-0.546,0-1.035-0.098-1.464-0.294
		c-0.43-0.196-0.793-0.476-1.089-0.839c-0.297-0.363-0.524-0.798-0.68-1.305c-0.158-0.506-0.235-1.072-0.235-1.697
		c0-0.65,0.085-1.239,0.254-1.767c0.169-0.528,0.407-0.977,0.716-1.349c0.308-0.372,0.677-0.66,1.108-0.865
		c0.432-0.204,0.91-0.307,1.434-0.307c0.27,0,0.523,0.028,0.759,0.083c0.237,0.054,0.447,0.119,0.631,0.193
		c0.184,0.074,0.339,0.154,0.464,0.24c0.126,0.087,0.212,0.157,0.259,0.212c0.048,0.055,0.081,0.119,0.099,0.19
		C155.979,104.067,155.988,104.17,155.988,104.306z"/>
	<path style="fill:#029352;" d="M164.776,107.193c0,0.664-0.067,1.26-0.202,1.793c-0.135,0.532-0.336,0.984-0.604,1.358
		c-0.268,0.374-0.604,0.661-1.008,0.861c-0.404,0.2-0.876,0.301-1.415,0.301c-0.532,0-0.991-0.092-1.379-0.275
		c-0.388-0.184-0.709-0.451-0.962-0.801c-0.253-0.351-0.442-0.786-0.565-1.305c-0.124-0.52-0.186-1.117-0.186-1.792
		c0-0.646,0.067-1.233,0.202-1.761c0.135-0.528,0.336-0.977,0.606-1.346c0.27-0.369,0.606-0.654,1.011-0.855
		c0.404-0.2,0.876-0.3,1.414-0.3c0.521,0,0.974,0.091,1.36,0.272c0.386,0.182,0.708,0.446,0.964,0.794
		c0.257,0.348,0.448,0.779,0.574,1.292C164.713,105.943,164.776,106.531,164.776,107.193z M163.782,107.27
		c0-0.465-0.035-0.896-0.106-1.295c-0.071-0.399-0.189-0.746-0.355-1.039c-0.165-0.294-0.386-0.523-0.663-0.687
		c-0.277-0.165-0.619-0.247-1.026-0.247c-0.407,0-0.749,0.089-1.025,0.266c-0.277,0.178-0.501,0.415-0.674,0.709
		c-0.173,0.296-0.297,0.641-0.371,1.036c-0.074,0.395-0.112,0.809-0.112,1.244c0,0.482,0.035,0.925,0.104,1.33
		c0.069,0.405,0.186,0.754,0.349,1.048c0.164,0.293,0.383,0.521,0.657,0.684c0.275,0.163,0.619,0.244,1.034,0.244
		c0.411,0,0.756-0.089,1.037-0.267c0.28-0.177,0.505-0.417,0.677-0.719c0.17-0.302,0.292-0.651,0.365-1.048
		C163.746,108.133,163.782,107.713,163.782,107.27z"/>
	<path style="fill:#029352;" d="M173.303,107.193c0,0.664-0.068,1.26-0.203,1.793c-0.135,0.532-0.336,0.984-0.604,1.358
		c-0.268,0.374-0.604,0.661-1.008,0.861c-0.404,0.2-0.876,0.301-1.415,0.301c-0.532,0-0.992-0.092-1.38-0.275
		c-0.388-0.184-0.707-0.451-0.961-0.801c-0.253-0.351-0.441-0.786-0.565-1.305c-0.124-0.52-0.186-1.117-0.186-1.792
		c0-0.646,0.068-1.233,0.203-1.761c0.135-0.528,0.336-0.977,0.606-1.346c0.27-0.369,0.606-0.654,1.01-0.855
		c0.404-0.2,0.876-0.3,1.415-0.3c0.521,0,0.974,0.091,1.36,0.272c0.386,0.182,0.707,0.446,0.964,0.794
		c0.257,0.348,0.448,0.779,0.574,1.292C173.24,105.943,173.303,106.531,173.303,107.193z M172.308,107.27
		c0-0.465-0.036-0.896-0.106-1.295c-0.071-0.399-0.189-0.746-0.354-1.039c-0.166-0.294-0.387-0.523-0.663-0.687
		c-0.276-0.165-0.618-0.247-1.025-0.247s-0.749,0.089-1.026,0.266c-0.276,0.178-0.501,0.415-0.673,0.709
		c-0.173,0.296-0.297,0.641-0.372,1.036c-0.074,0.395-0.112,0.809-0.112,1.244c0,0.482,0.035,0.925,0.104,1.33
		c0.069,0.405,0.186,0.754,0.349,1.048c0.164,0.293,0.384,0.521,0.658,0.684c0.274,0.163,0.619,0.244,1.034,0.244
		c0.411,0,0.756-0.089,1.036-0.267c0.28-0.177,0.506-0.417,0.677-0.719c0.17-0.302,0.292-0.651,0.365-1.048
		C172.272,108.133,172.308,107.713,172.308,107.27z"/>
	<path style="fill:#029352;" d="M181.342,107.168c0,0.71-0.078,1.33-0.235,1.859c-0.156,0.53-0.386,0.969-0.686,1.318
		c-0.3,0.348-0.669,0.609-1.106,0.782c-0.437,0.173-0.958,0.26-1.562,0.26h-1.497c-0.083,0-0.163-0.033-0.237-0.098
		c-0.075-0.065-0.112-0.181-0.112-0.346v-7.309c0-0.164,0.038-0.279,0.112-0.345c0.074-0.065,0.153-0.099,0.237-0.099h1.601
		c0.612,0,1.129,0.093,1.552,0.276c0.422,0.184,0.776,0.448,1.062,0.791c0.286,0.345,0.502,0.761,0.65,1.251
		C181.269,105.998,181.342,106.552,181.342,107.168z M180.354,107.213c0-0.444-0.047-0.856-0.143-1.238
		c-0.094-0.382-0.243-0.713-0.445-0.992c-0.202-0.279-0.458-0.496-0.768-0.652c-0.309-0.156-0.708-0.234-1.196-0.234h-0.956v6.377
		h0.967c0.452,0,0.832-0.066,1.142-0.197c0.309-0.131,0.568-0.331,0.776-0.601c0.207-0.271,0.363-0.609,0.467-1.018
		C180.301,108.252,180.354,107.771,180.354,107.213z"/>
	<path style="fill:#029352;" d="M191.987,103.66c0,0.08-0.004,0.149-0.011,0.208c-0.007,0.059-0.019,0.107-0.036,0.142
		c-0.016,0.036-0.036,0.062-0.059,0.08c-0.024,0.017-0.05,0.025-0.079,0.025h-1.989v7.105c0,0.035-0.007,0.063-0.022,0.089
		c-0.015,0.025-0.039,0.046-0.076,0.06c-0.036,0.015-0.085,0.028-0.145,0.038c-0.06,0.01-0.135,0.016-0.227,0.016
		c-0.087,0-0.162-0.005-0.224-0.016c-0.062-0.011-0.111-0.023-0.147-0.038c-0.037-0.014-0.062-0.035-0.077-0.06
		c-0.014-0.025-0.021-0.054-0.021-0.089v-7.105h-1.988c-0.03,0-0.056-0.008-0.08-0.025c-0.024-0.017-0.042-0.043-0.058-0.08
		c-0.015-0.035-0.026-0.083-0.035-0.142c-0.009-0.059-0.014-0.129-0.014-0.208c0-0.081,0.005-0.151,0.014-0.212
		c0.009-0.062,0.021-0.111,0.035-0.149c0.015-0.039,0.034-0.065,0.058-0.082c0.023-0.017,0.05-0.026,0.08-0.026h4.916
		c0.029,0,0.055,0.009,0.079,0.026c0.023,0.017,0.043,0.044,0.059,0.082c0.017,0.038,0.029,0.087,0.036,0.149
		C191.983,103.509,191.987,103.579,191.987,103.66z"/>
	<path style="fill:#029352;" d="M198.841,111.221c0,0.035-0.006,0.063-0.016,0.089c-0.011,0.025-0.035,0.047-0.071,0.064
		c-0.036,0.017-0.087,0.029-0.153,0.038c-0.065,0.008-0.153,0.012-0.262,0.012c-0.095,0-0.172-0.004-0.232-0.012
		c-0.06-0.009-0.108-0.023-0.145-0.042c-0.037-0.019-0.065-0.045-0.085-0.079c-0.02-0.034-0.038-0.076-0.052-0.126l-0.649-1.932
		c-0.077-0.22-0.155-0.421-0.238-0.604c-0.082-0.184-0.18-0.342-0.292-0.476c-0.113-0.133-0.246-0.236-0.399-0.31
		c-0.153-0.074-0.337-0.111-0.552-0.111h-0.628v3.489c0,0.035-0.008,0.063-0.024,0.089c-0.017,0.025-0.042,0.046-0.077,0.06
		c-0.034,0.015-0.082,0.028-0.142,0.038c-0.06,0.01-0.136,0.016-0.227,0.016c-0.091,0-0.167-0.005-0.227-0.016
		c-0.06-0.011-0.108-0.023-0.145-0.038c-0.037-0.014-0.062-0.035-0.077-0.06c-0.015-0.025-0.021-0.054-0.021-0.089v-7.587
		c0-0.164,0.037-0.279,0.112-0.345c0.074-0.065,0.154-0.099,0.237-0.099h1.502c0.179,0,0.327,0.006,0.445,0.017
		c0.119,0.01,0.225,0.022,0.319,0.035c0.273,0.054,0.515,0.141,0.724,0.259c0.209,0.119,0.385,0.269,0.527,0.45
		c0.143,0.182,0.249,0.39,0.32,0.624c0.071,0.235,0.106,0.493,0.106,0.776c0,0.275-0.032,0.521-0.096,0.737
		c-0.064,0.218-0.155,0.41-0.275,0.577c-0.12,0.168-0.264,0.312-0.432,0.434c-0.167,0.123-0.354,0.226-0.562,0.311
		c0.116,0.059,0.222,0.134,0.316,0.225c0.095,0.091,0.184,0.2,0.266,0.326c0.082,0.127,0.159,0.273,0.232,0.437
		c0.073,0.165,0.145,0.351,0.218,0.558l0.634,1.805c0.05,0.152,0.083,0.259,0.098,0.32
		C198.834,111.141,198.841,111.188,198.841,111.221z M197.426,105.465c0-0.321-0.062-0.592-0.186-0.814
		c-0.123-0.222-0.331-0.381-0.622-0.478c-0.091-0.03-0.194-0.051-0.309-0.064c-0.114-0.012-0.265-0.019-0.451-0.019h-0.792v2.762
		h0.917c0.247,0,0.461-0.035,0.642-0.105c0.181-0.069,0.33-0.166,0.451-0.291c0.12-0.125,0.208-0.271,0.265-0.44
		C197.398,105.847,197.426,105.663,197.426,105.465z"/>
	<path style="fill:#029352;" d="M206.613,111c0.029,0.093,0.045,0.168,0.046,0.225c0.002,0.057-0.012,0.1-0.041,0.129
		c-0.03,0.03-0.078,0.048-0.145,0.058c-0.068,0.008-0.158,0.012-0.27,0.012c-0.113,0-0.203-0.003-0.271-0.01
		c-0.067-0.006-0.118-0.017-0.153-0.031c-0.034-0.015-0.06-0.035-0.077-0.06c-0.016-0.025-0.032-0.057-0.046-0.095l-0.606-1.995
		h-2.939l-0.579,1.97c-0.011,0.038-0.026,0.071-0.044,0.098c-0.018,0.027-0.044,0.051-0.079,0.069
		c-0.035,0.019-0.084,0.033-0.148,0.042c-0.064,0.008-0.146,0.012-0.248,0.012c-0.106,0-0.193-0.005-0.26-0.016
		c-0.067-0.011-0.115-0.031-0.142-0.06c-0.027-0.03-0.04-0.073-0.038-0.13c0.001-0.058,0.017-0.132,0.046-0.225l2.371-7.613
		c0.014-0.046,0.033-0.085,0.057-0.114c0.023-0.03,0.058-0.053,0.103-0.07c0.046-0.017,0.104-0.028,0.175-0.035
		c0.071-0.006,0.161-0.009,0.271-0.009c0.116,0,0.213,0.003,0.29,0.009c0.077,0.007,0.138,0.018,0.186,0.035
		c0.047,0.017,0.083,0.041,0.109,0.073c0.025,0.032,0.046,0.071,0.061,0.117L206.613,111z M203.571,104.28h-0.006l-1.218,4.086
		h2.458L203.571,104.28z"/>
	<path style="fill:#029352;" d="M214.347,107.168c0,0.71-0.078,1.33-0.235,1.859c-0.157,0.53-0.385,0.969-0.686,1.318
		c-0.3,0.348-0.669,0.609-1.106,0.782c-0.437,0.173-0.958,0.26-1.562,0.26h-1.497c-0.083,0-0.163-0.033-0.237-0.098
		c-0.075-0.065-0.112-0.181-0.112-0.346v-7.309c0-0.164,0.038-0.279,0.112-0.345c0.074-0.065,0.154-0.099,0.237-0.099h1.6
		c0.612,0,1.129,0.093,1.551,0.276c0.423,0.184,0.777,0.448,1.063,0.791c0.286,0.345,0.502,0.761,0.65,1.251
		C214.273,105.998,214.347,106.552,214.347,107.168z M213.359,107.213c0-0.444-0.047-0.856-0.143-1.238
		c-0.095-0.382-0.243-0.713-0.445-0.992c-0.202-0.279-0.458-0.496-0.768-0.652c-0.31-0.156-0.708-0.234-1.196-0.234h-0.956v6.377
		h0.967c0.452,0,0.832-0.066,1.141-0.197c0.309-0.131,0.568-0.331,0.776-0.601c0.208-0.271,0.363-0.609,0.467-1.018
		C213.307,108.252,213.359,107.771,213.359,107.213z"/>
	<path style="fill:#029352;" d="M220.847,110.937c0,0.076-0.004,0.142-0.011,0.199c-0.008,0.057-0.02,0.104-0.038,0.143
		c-0.018,0.038-0.039,0.065-0.063,0.082c-0.024,0.017-0.05,0.025-0.079,0.025h-3.392c-0.084,0-0.164-0.033-0.237-0.098
		c-0.075-0.065-0.112-0.181-0.112-0.346v-7.309c0-0.164,0.037-0.279,0.112-0.345c0.074-0.065,0.154-0.099,0.237-0.099h3.354
		c0.029,0,0.056,0.009,0.079,0.026c0.024,0.017,0.043,0.044,0.058,0.082c0.014,0.038,0.026,0.085,0.035,0.142
		c0.009,0.057,0.014,0.128,0.014,0.212c0,0.076-0.004,0.142-0.014,0.2c-0.009,0.057-0.021,0.103-0.035,0.139
		c-0.015,0.036-0.034,0.062-0.058,0.079c-0.023,0.017-0.05,0.026-0.079,0.026h-2.764v2.571h2.371c0.03,0,0.055,0.009,0.08,0.028
		c0.024,0.019,0.044,0.046,0.06,0.08c0.016,0.034,0.028,0.08,0.036,0.139c0.007,0.059,0.011,0.129,0.011,0.209
		c0,0.076-0.004,0.141-0.011,0.196c-0.008,0.055-0.02,0.1-0.036,0.133c-0.017,0.034-0.036,0.058-0.06,0.073
		c-0.024,0.015-0.05,0.021-0.08,0.021h-2.371v2.932h2.802c0.029,0,0.055,0.009,0.079,0.026c0.024,0.017,0.045,0.043,0.063,0.079
		c0.018,0.036,0.031,0.082,0.038,0.139C220.843,110.782,220.847,110.853,220.847,110.937z"/>
	<path style="fill:#029352;" d="M231.802,109.036c0,0.258-0.028,0.496-0.084,0.713c-0.057,0.217-0.136,0.413-0.238,0.585
		c-0.103,0.173-0.226,0.325-0.369,0.456c-0.144,0.131-0.306,0.24-0.486,0.33c-0.18,0.088-0.373,0.155-0.579,0.199
		c-0.206,0.045-0.442,0.067-0.708,0.067h-1.846c-0.084,0-0.163-0.033-0.237-0.098c-0.075-0.065-0.112-0.181-0.112-0.346v-7.309
		c0-0.164,0.038-0.279,0.112-0.345c0.074-0.065,0.153-0.099,0.237-0.099h1.605c0.423,0,0.769,0.047,1.038,0.14
		c0.27,0.093,0.495,0.228,0.675,0.406c0.18,0.177,0.316,0.395,0.407,0.652c0.091,0.258,0.137,0.549,0.137,0.874
		c0,0.194-0.02,0.38-0.06,0.558c-0.041,0.177-0.099,0.341-0.178,0.491c-0.078,0.15-0.177,0.284-0.294,0.402
		c-0.119,0.118-0.254,0.215-0.408,0.291c0.194,0.042,0.374,0.12,0.542,0.232c0.167,0.111,0.314,0.254,0.439,0.427
		c0.126,0.173,0.225,0.376,0.297,0.608C231.765,108.502,231.802,108.758,231.802,109.036z M230.387,105.37
		c0-0.198-0.023-0.378-0.071-0.538c-0.047-0.161-0.121-0.297-0.224-0.409c-0.102-0.112-0.234-0.197-0.397-0.256
		c-0.164-0.059-0.38-0.089-0.649-0.089h-0.97v2.653h1.068c0.244,0,0.439-0.037,0.589-0.11c0.148-0.074,0.272-0.173,0.37-0.298
		c0.098-0.125,0.169-0.27,0.215-0.437C230.365,105.719,230.387,105.547,230.387,105.37z M230.813,109.1
		c0-0.245-0.034-0.46-0.101-0.646c-0.068-0.185-0.166-0.341-0.295-0.468c-0.129-0.127-0.291-0.223-0.485-0.288
		c-0.194-0.065-0.438-0.098-0.733-0.098h-1.124v2.888h1.363c0.214,0,0.402-0.029,0.562-0.089c0.16-0.059,0.301-0.146,0.422-0.262
		c0.122-0.117,0.217-0.261,0.286-0.434C230.778,109.529,230.813,109.328,230.813,109.1z"/>
	<path style="fill:#029352;" d="M236.286,108.201v3.021c0,0.035-0.008,0.063-0.022,0.089c-0.014,0.025-0.04,0.046-0.076,0.06
		c-0.036,0.015-0.085,0.028-0.147,0.038c-0.061,0.01-0.136,0.016-0.223,0.016c-0.09,0-0.165-0.005-0.225-0.016
		c-0.06-0.011-0.108-0.023-0.147-0.038c-0.038-0.014-0.064-0.035-0.079-0.06c-0.014-0.025-0.022-0.054-0.022-0.089v-3.021
		l-1.999-4.624c-0.041-0.097-0.065-0.172-0.074-0.227c-0.009-0.055,0-0.097,0.028-0.127c0.026-0.029,0.076-0.049,0.147-0.058
		c0.071-0.008,0.166-0.012,0.286-0.012c0.109,0,0.198,0.004,0.265,0.012c0.067,0.009,0.121,0.021,0.161,0.035
		c0.04,0.015,0.07,0.036,0.09,0.063c0.02,0.028,0.039,0.063,0.058,0.105l0.978,2.356c0.091,0.224,0.181,0.458,0.272,0.704
		c0.09,0.244,0.183,0.492,0.276,0.74h0.011c0.083-0.241,0.169-0.48,0.258-0.718c0.089-0.239,0.179-0.474,0.27-0.707l0.983-2.369
		c0.011-0.042,0.026-0.079,0.046-0.107c0.02-0.03,0.047-0.052,0.082-0.067c0.034-0.015,0.082-0.026,0.145-0.035
		c0.062-0.008,0.14-0.012,0.235-0.012c0.131,0,0.233,0.006,0.308,0.016c0.075,0.01,0.126,0.03,0.155,0.06
		c0.03,0.029,0.04,0.072,0.031,0.127c-0.009,0.054-0.034,0.128-0.074,0.221L236.286,108.201z"/>
	<path style="fill:#029352;" d="M249.568,108.359c0,0.498-0.062,0.943-0.188,1.334c-0.126,0.39-0.305,0.721-0.538,0.991
		c-0.233,0.27-0.517,0.475-0.852,0.614c-0.335,0.14-0.716,0.209-1.142,0.209c-0.39,0-0.745-0.066-1.065-0.197
		c-0.32-0.131-0.595-0.324-0.825-0.579c-0.229-0.255-0.406-0.576-0.53-0.96c-0.124-0.383-0.186-0.827-0.186-1.329v-5.086
		c0-0.035,0.007-0.063,0.021-0.089c0.015-0.025,0.04-0.045,0.077-0.06c0.036-0.015,0.083-0.028,0.142-0.038
		c0.058-0.01,0.134-0.016,0.229-0.016c0.087,0,0.162,0.006,0.224,0.016c0.062,0.01,0.11,0.023,0.145,0.038
		c0.035,0.015,0.059,0.035,0.073,0.06c0.015,0.025,0.022,0.054,0.022,0.089v4.953c0,0.38,0.04,0.712,0.121,0.994
		c0.081,0.283,0.195,0.518,0.347,0.706c0.15,0.188,0.333,0.329,0.546,0.424c0.213,0.095,0.453,0.142,0.718,0.142
		c0.273,0,0.516-0.047,0.73-0.14c0.213-0.092,0.393-0.232,0.541-0.418c0.147-0.186,0.26-0.416,0.338-0.69
		c0.078-0.275,0.117-0.595,0.117-0.962v-5.01c0-0.035,0.008-0.063,0.022-0.089c0.014-0.025,0.039-0.045,0.076-0.06
		c0.036-0.015,0.085-0.028,0.144-0.038c0.061-0.01,0.136-0.016,0.227-0.016c0.087,0,0.161,0.006,0.221,0.016
		c0.061,0.01,0.108,0.023,0.143,0.038c0.034,0.015,0.06,0.035,0.076,0.06c0.016,0.025,0.024,0.054,0.024,0.089V108.359z"/>
	<path style="fill:#029352;" d="M256.347,109.087c0,0.385-0.061,0.727-0.183,1.027c-0.122,0.299-0.292,0.554-0.508,0.763
		c-0.217,0.209-0.472,0.366-0.765,0.472c-0.293,0.106-0.609,0.158-0.948,0.158c-0.236,0-0.456-0.023-0.658-0.069
		c-0.202-0.047-0.382-0.104-0.541-0.171c-0.158-0.067-0.292-0.137-0.399-0.21c-0.107-0.071-0.182-0.133-0.224-0.184
		c-0.042-0.05-0.073-0.115-0.092-0.193c-0.02-0.079-0.031-0.183-0.031-0.313c0-0.093,0.004-0.17,0.011-0.231
		c0.007-0.062,0.018-0.111,0.033-0.149c0.014-0.038,0.033-0.063,0.054-0.079c0.022-0.015,0.047-0.022,0.076-0.022
		c0.052,0,0.123,0.037,0.216,0.108c0.093,0.072,0.212,0.149,0.358,0.234c0.146,0.084,0.321,0.163,0.527,0.237
		c0.206,0.074,0.443,0.111,0.713,0.111c0.204,0,0.391-0.032,0.56-0.096c0.169-0.062,0.314-0.152,0.437-0.268
		c0.122-0.116,0.216-0.259,0.281-0.428c0.066-0.169,0.098-0.361,0.098-0.577c0-0.231-0.045-0.43-0.137-0.595
		c-0.091-0.165-0.211-0.309-0.36-0.434c-0.149-0.124-0.319-0.238-0.511-0.342c-0.191-0.103-0.387-0.209-0.587-0.316
		c-0.2-0.107-0.395-0.227-0.584-0.357c-0.19-0.131-0.359-0.285-0.508-0.463c-0.149-0.177-0.27-0.385-0.364-0.624
		c-0.092-0.238-0.139-0.524-0.139-0.858c0-0.342,0.054-0.647,0.162-0.915c0.107-0.268,0.256-0.493,0.448-0.675
		c0.191-0.181,0.419-0.32,0.683-0.415c0.264-0.095,0.549-0.142,0.855-0.142c0.157,0,0.314,0.016,0.473,0.047
		c0.159,0.032,0.308,0.074,0.448,0.126c0.141,0.053,0.265,0.112,0.374,0.178c0.109,0.065,0.181,0.118,0.216,0.158
		c0.035,0.04,0.057,0.072,0.068,0.095c0.011,0.023,0.02,0.053,0.027,0.089c0.007,0.036,0.013,0.079,0.016,0.13
		c0.003,0.05,0.006,0.116,0.006,0.196c0,0.076-0.003,0.144-0.008,0.202c-0.006,0.059-0.014,0.109-0.024,0.149
		c-0.011,0.04-0.027,0.07-0.047,0.089c-0.02,0.02-0.043,0.029-0.068,0.029c-0.04,0-0.102-0.03-0.188-0.088
		c-0.086-0.059-0.191-0.126-0.314-0.2c-0.124-0.074-0.271-0.141-0.44-0.203c-0.169-0.061-0.359-0.092-0.571-0.092
		c-0.197,0-0.368,0.031-0.513,0.092c-0.146,0.062-0.266,0.142-0.36,0.244c-0.095,0.101-0.166,0.222-0.213,0.361
		c-0.048,0.139-0.071,0.287-0.071,0.443c0,0.228,0.045,0.425,0.137,0.589c0.091,0.165,0.212,0.31,0.363,0.437
		c0.152,0.126,0.323,0.243,0.516,0.348c0.193,0.106,0.39,0.213,0.59,0.32c0.201,0.107,0.397,0.226,0.59,0.355
		c0.192,0.128,0.365,0.28,0.517,0.455c0.15,0.176,0.272,0.382,0.366,0.621C256.3,108.48,256.347,108.762,256.347,109.087z"/>
</g>
</svg>
